<?xml version="1.0" standalone="no"?>
<!DOCTYPE svg PUBLIC "-//W3C//DTD SVG 20010904//EN"
 "http://www.w3.org/TR/2001/REC-SVG-20010904/DTD/svg10.dtd">
<svg version="1.0" xmlns="http://www.w3.org/2000/svg"
 width="900.000000pt" height="1011.000000pt" viewBox="0 0 900.000000 1011.000000"
 preserveAspectRatio="xMidYMid meet">
<g transform="translate(0.000000,1011.000000) scale(0.100000,-0.100000)"
fill="#000000" stroke="#fff">
<path d="M3135 9797 c-22 -5 -60 -14 -85 -22 -63 -19 -157 -27 -165 -15 -12
20 -43 9 -90 -29 -26 -21 -74 -49 -107 -62 -33 -13 -83 -44 -112 -69 -106 -92
-138 -113 -202 -131 -63 -18 -69 -22 -257 -205 -106 -103 -239 -225 -297 -273
-166 -136 -228 -208 -297 -346 -17 -33 -47 -87 -67 -119 -20 -33 -36 -71 -37
-85 0 -34 -33 -114 -42 -105 -4 4 -7 0 -7 -9 0 -8 6 -18 13 -20 7 -3 5 -6 -5
-6 -19 -1 -26 -31 -8 -31 6 0 9 -15 9 -32 -1 -18 -3 -25 -6 -15 -7 28 -23 19
-23 -14 0 -17 4 -28 10 -24 6 3 10 -1 10 -9 0 -9 -6 -16 -13 -16 -7 0 -21 -24
-30 -53 -20 -62 -21 -70 -7 -62 11 7 13 -15 4 -39 -5 -12 -10 -14 -19 -6 -10
8 -15 4 -20 -19 -3 -17 -4 -35 0 -41 3 -5 1 -10 -6 -10 -6 0 -9 -8 -6 -20 3
-13 1 -18 -5 -13 -8 4 -9 -4 -5 -26 5 -23 3 -30 -5 -25 -8 5 -9 -3 -5 -29 3
-23 2 -37 -5 -37 -6 0 -7 -15 -3 -40 5 -28 3 -40 -5 -40 -8 0 -11 -10 -8 -25
3 -14 1 -25 -4 -25 -6 0 -7 -11 -4 -25 4 -14 2 -25 -4 -25 -14 0 -12 -27 3
-33 7 -3 5 -6 -5 -6 -19 -1 -25 -27 -9 -33 6 -2 6 -120 0 -308 -16 -532 -16
-829 0 -839 8 -5 11 -16 7 -29 -4 -11 -2 -23 3 -26 6 -4 8 -13 5 -21 -3 -8 1
-38 10 -69 20 -68 20 -72 -3 -95 -17 -17 -24 -18 -51 -8 -39 15 -75 -3 -104
-52 -18 -32 -19 -40 -8 -141 15 -136 38 -226 106 -420 30 -85 75 -216 101
-290 26 -74 88 -219 137 -322 49 -103 90 -196 90 -205 1 -10 -10 -48 -25 -85
-44 -109 -31 -175 46 -232 37 -27 154 -29 206 -3 18 9 37 14 41 12 10 -6 17
-29 56 -170 34 -126 93 -264 179 -425 206 -382 254 -454 454 -680 64 -72 123
-150 141 -185 35 -71 131 -413 131 -470 0 -22 27 -119 59 -215 58 -173 82
-286 95 -452 l7 -78 361 0 c477 1 820 14 978 39 450 71 946 219 1259 376 173
87 357 170 469 211 100 37 100 37 83 59 -9 12 -66 80 -125 151 -234 278 -276
457 -263 1114 4 178 11 367 17 420 19 177 84 537 99 554 5 5 21 -1 38 -13 63
-44 124 -64 204 -65 72 -1 78 1 108 29 40 37 80 99 80 122 0 10 -11 42 -25 71
-42 90 -41 95 80 347 43 88 69 162 100 285 24 91 62 235 84 320 69 262 96 468
72 533 -15 38 -46 39 -124 7 -38 -17 -73 -30 -78 -30 -5 0 -9 12 -9 28 -1 24
-29 72 -44 72 -3 0 -6 -12 -7 -27 0 -16 -4 -37 -9 -48 -20 -46 -9 37 15 122
14 48 37 173 50 278 l25 192 -30 314 c-38 403 -38 407 -50 646 -6 112 -15 226
-20 253 -14 71 -52 164 -115 275 -30 53 -68 128 -84 167 -46 108 -107 204
-167 261 -33 30 -64 72 -76 100 -13 30 -31 53 -49 62 -15 8 -46 37 -69 64 -44
52 -295 277 -354 317 -52 35 -73 42 -188 54 -141 15 -173 25 -221 69 -114 104
-535 253 -892 315 -168 29 -790 53 -880 33z"/>
</g>
</svg>
