<svg width="512" height="512" viewBox="0 0 512 512" fill="none" xmlns="http://www.w3.org/2000/svg">
    <g id="star">
        <circle cx="256" cy="256" r="151.479" fill="#D9D9D9" class="circle"/>
        <g id="prongs">
            <path d="M248.683 11.3609C251.599 6.31164 258.887 6.31164 261.802 11.3609L309.684 94.2959C312.6 99.3452 308.956 105.657 303.125 105.657H207.36C201.53 105.657 197.886 99.3452 200.801 94.2959L248.683 11.3609Z" fill="#D9D9D9"/>
            <path d="M77.4391 88.2301C75.9301 82.5983 81.0835 77.4449 86.7153 78.9539L179.217 103.74C184.849 105.249 186.735 112.288 182.612 116.411L114.896 184.127C110.774 188.25 103.734 186.364 102.225 180.732L77.4391 88.2301Z" fill="#D9D9D9"/>
            <path d="M433.837 424.56C435.346 430.192 430.192 435.346 424.56 433.837L332.059 409.051C326.427 407.542 324.541 400.502 328.663 396.379L396.379 328.663C400.502 324.541 407.542 326.427 409.051 332.059L433.837 424.56Z" fill="#D9D9D9"/>
            <path d="M86.7153 433.837C81.0835 435.346 75.9301 430.192 77.4391 424.56L102.225 332.059C103.734 326.427 110.774 324.541 114.896 328.663L182.612 396.379C186.735 400.502 184.849 407.542 179.217 409.051L86.7153 433.837Z" fill="#D9D9D9"/>
            <path d="M424.56 78.9539C430.192 77.4449 435.346 82.5983 433.837 88.2301L409.051 180.732C407.542 186.364 400.502 188.25 396.379 184.127L328.663 116.411C324.541 112.288 326.427 105.249 332.059 103.74L424.56 78.9539Z" fill="#D9D9D9"/>
            <path d="M261.802 500.639C258.887 505.688 251.599 505.688 248.683 500.639L200.801 417.704C197.886 412.655 201.53 406.343 207.36 406.343H303.125C308.956 406.343 312.6 412.655 309.684 417.704L261.802 500.639Z" fill="#D9D9D9"/>
            <path d="M500.639 248.683C505.688 251.599 505.688 258.887 500.639 261.802L417.704 309.684C412.655 312.6 406.343 308.956 406.343 303.125V207.36C406.343 201.53 412.655 197.886 417.704 200.801L500.639 248.683Z" fill="#D9D9D9"/>
            <path d="M11.3609 261.802C6.31164 258.887 6.31164 251.599 11.3609 248.683L94.2959 200.801C99.3452 197.886 105.657 201.53 105.657 207.36V303.125C105.657 308.956 99.3452 312.6 94.2959 309.684L11.3609 261.802Z" fill="#D9D9D9"/>
        </g>
    </g>
</svg>
